PathFileType	4	(X/Y/Z)	/Users/whiskymisky/masters/Sports2D_results/trial_4_Sports2D/trial_4_Sports2D_m_person00.trc
DataRate	CameraRate	NumFrames	NumMarkers	Units	OrigDataRate	OrigDataStartFrame	OrigNumFrames
50	50	7	22	m	50	411	1098
Frame#	Time	Hip			RHip			RKnee			RAnkle			RBigToe			RSmallToe			RHeel			LHip			LKnee			LAnkle			LBigToe			LSmallToe			LHeel			Neck			Head			Nose			RShoulder			RElbow			RWrist			LShoulder			LElbow			LWrist		
		X1	Y1	Z1	X2	Y2	Z2	X3	Y3	Z3	X4	Y4	Z4	X5	Y5	Z5	X6	Y6	Z6	X7	Y7	Z7	X8	Y8	Z8	X9	Y9	Z9	X10	Y10	Z10	X11	Y11	Z11	X12	Y12	Z12	X13	Y13	Z13	X14	Y14	Z14	X15	Y15	Z15	X16	Y16	Z16	X17	Y17	Z17	X18	Y18	Z18	X19	Y19	Z19	X20	Y20	Z20	X21	Y21	Z21	X22	Y22	Z22
411	8.22	4.293916367129896	0.8610520037553373	0.0301	4.164333821742756	0.8709491890852528	0.0301	3.86691403022297	0.5239642200518141	0.129	3.6361260875268027	0.2200313906521057	0.023	3.5935728942201903	0.10770135979401212	0.2179	3.522536682005745	0.1526638453820018	0.1804	3.6325539929380772	0.17414868948778583	-0.0119	4.383761030675662	0.7694580451098614	0.0301	4.253461922783364	0.3608793332355172	0.129	4.158717854273623	0.026110489872969322	0.023	4.1589517242285226	-0.09127909458859675	0.2179	4.211071016040586	-0.09510426221218204	0.1804	4.113934838922509	0.0032476555207527277	-0.0119	4.568003726475884	1.3870567192312417	0.0008	4.698536187328004	1.6407433422596904	0.0655	4.619667611552841	1.4933399110900605	0.1076	4.353355782964834	1.4200059298772558	-0.01275	4.097586729785291	1.5415272386870915	0.0702	4.106544050891855	1.7971473444041897	0.1076	4.728476221621769	1.2537190548996886	-0.01275	4.959181921707276	1.14122273564814	0.0702	5.181091243720565	1.2725482359181175	0.1076
412	8.24	4.294355002072107	0.8606153406742605	0.0301	4.16421537346949	0.8708750536609222	0.0301	3.8670528385836636	0.5241330729944705	0.129	3.6361577182039952	0.2200247885449317	0.023	3.593706927433436	0.10772754466025472	0.2179	3.5224240331856813	0.15240538119151573	0.1804	3.6323116595022538	0.17359547208305437	-0.0119	4.383358413232433	0.7688434209317755	0.0301	4.253778112242671	0.3609957795315315	0.129	4.15914911156803	0.026132244092284155	0.023	4.159374602253202	-0.09185708059215418	0.2179	4.211494373856379	-0.09549364887493507	0.1804	4.113587924403074	0.0030214110996971753	-0.0119	4.568088097538951	1.3873830723612395	0.0008	4.698646994605464	1.6402082466688217	0.0655	4.62155844861275	1.4934710361946326	0.1076	4.352826746699861	1.4200755996265704	-0.01275	4.097969229153225	1.5419292319732267	0.0702	4.10581243130517	1.7977769282437754	0.1076	4.728690742249757	1.2540461203487452	-0.01275	4.958100521091034	1.1423707433550323	0.0702	5.179514150382657	1.2700368214966833	0.1076
413	8.26	4.2945964302332	0.8597177373764399	0.0301	4.163762681572584	0.8703195569430237	0.0301	3.8672449739323795	0.5237042941289755	0.129	3.6356213575363223	0.21959614786448592	0.023	3.593372760218563	0.10746984127839895	0.2179	3.5220396250308283	0.15185607970836257	0.1804	3.631699880216289	0.172660001912377	-0.0119	4.382582974556593	0.7679271001954592	0.0301	4.253689811266505	0.3606885291557465	0.129	4.159507311037189	0.025826218668433324	0.023	4.159575085124702	-0.09293249268576875	0.2179	4.212040929637788	-0.09571227484887926	0.1804	4.113550689048971	0.002442600306885246	-0.0119	4.568182465160949	1.388014659954368	0.0008	4.698442391330631	1.6400067123621047	0.0655	4.622974532054085	1.493498627752729	0.1076	4.3524972390317584	1.4198716456937366	-0.01275	4.098052997491945	1.5422052170322016	0.0702	4.105493921719647	1.7987128231239409	0.1076	4.729206404276673	1.254505507729345	-0.01275	4.9584298264774	1.1434873825897756	0.0702	5.178607341112999	1.2691642923012376	0.1076
414	8.28	4.294555723976488	0.8588817052206889	0.0301	4.163110095927528	0.8696385440923049	0.0301	3.8673239845126153	0.5231411307320282	0.129	3.635145289235635	0.21939248885602194	0.023	3.593032322468693	0.10737308640858431	0.2179	3.5220042113765815	0.15144564867023977	0.1804	3.6309690625000526	0.17234148340077649	-0.0119	4.381801615091806	0.7670445500913113	0.0301	4.253426181465437	0.36028518820059346	0.129	4.15983102802707	0.025476433395611706	0.023	4.159884710384299	-0.09410667128819677	0.2179	4.212770119773197	-0.0955423034416115	0.1804	4.113887647107898	0.0019232987211791337	-0.0119	4.568202470719885	1.3886144351594858	0.0008	4.697969385838913	1.6400934582984608	0.0655	4.623298525153439	1.493214037292692	0.1076	4.35218760066452	1.419663976627408	-0.01275	4.09767887926494	1.5424523410060387	0.0702	4.105447118203704	1.799580191921396	0.1076	4.729701453030852	1.2548626926561983	-0.01275	4.959428293549204	1.1440631661523557	0.0702	5.178458728850172	1.2689387254760935	0.1076
415	8.3	4.294423676967942	0.8585519842767029	0.0301	4.162663867337789	0.8694146394226714	0.0301	3.867326538277344	0.5230951382272738	0.129	3.635332999227254	0.21993423979046395	0.023	3.593053459700773	0.10769353523351419	0.2179	3.5227273804043997	0.15143128728565738	0.1804	3.630576269355829	0.1730130545547136	-0.0119	4.381451986020118	0.7667386990970899	0.0301	4.253611447552378	0.3602033714235575	0.129	4.159904513832971	0.025244376276444932	0.023	4.16049967514388	-0.09484850854529765	0.2179	4.2134973814737195	-0.094935481068771	0.1804	4.114405616997137	0.0016121171078964445	-0.0119	4.5681885965232585	1.389057078291997	0.0008	4.697276069771529	1.6401931733632946	0.0655	4.6224595275094265	1.4926785631928414	0.1076	4.351621332198492	1.4198054665651363	-0.01275	4.096809850846267	1.5426873827820717	0.0702	4.105167512071141	1.80000464827221	0.1076	4.729980064584226	1.2549152408282735	-0.01275	4.959909763577185	1.1439150878321973	0.0702	5.1785967373326045	1.2677695160764264	0.1076
416	8.32	4.294488073587871	0.8585941512810039	0.0301	4.1627040297321525	0.8695735840388855	0.0301	3.867476555055749	0.5233575220648465	0.129	3.635691030075082	0.22057543776376992	0.023	3.5931610354956454	0.10802725550374769	0.2179	3.5233809323104492	0.15156235025573664	0.1804	3.630651996217625	0.17375456894045807	-0.0119	4.381610435776436	0.7670644987582003	0.0301	4.2543788469293276	0.36020633745965885	0.129	4.159686500682375	0.024816452354877845	0.023	4.160995578867321	-0.0950584717217295	0.2179	4.213828094584084	-0.09417889226646664	0.1804	4.115098264100295	0.0012135888993613914	-0.0119	4.5682329559000845	1.3893441729946183	0.0008	4.696600924669674	1.6402524982545965	0.0655	4.6211104637966205	1.4923888340327058	0.1076	4.350965745795717	1.4200729048193828	-0.01275	4.095599965888755	1.5425771169452265	0.0702	4.104219130774364	1.8000922206642178	0.1076	4.730038327981567	1.2549004552439758	-0.01275	4.959725684343402	1.1436929515657417	0.0702	5.179128611043059	1.2667867196394662	0.1076
417	8.34	4.294773169865352	0.8586708435812921	0.0301	4.163005150359391	0.8695949664937097	0.0301	3.867851292514838	0.5234478032769609	0.129	3.635589393860777	0.22055541788460292	0.023	3.593072532502578	0.1081783383396092	0.2179	3.5232998655767904	0.15179575674455592	0.1804	3.631215278893777	0.17382320993020653	-0.0119	4.381991879453908	0.7675630103012543	0.0301	4.255189694323711	0.35999832243501323	0.129	4.159620406712515	0.024166628827990637	0.023	4.160941850047201	-0.0950435377102338	0.2179	4.213708938084796	-0.09374210681565882	0.1804	4.11619113545643	0.0006414407477657495	-0.0119	4.568135779247142	1.3893540649969074	0.0008	4.696172587570197	1.6403048211550004	0.0655	4.620000704612945	1.49271852170568	0.1076	4.350442348400916	1.4200477375555383	-0.01275	4.094452685489727	1.541961624807748	0.0702	4.102532626439802	1.8000643785434693	0.1076	4.729944661489792	1.2552059249679546	-0.01275	4.959175430035014	1.1439544344132175	0.0702	5.180385716841697	1.2672237037132135	0.1076
